<svg xmlns="http://www.w3.org/2000/svg" viewBox="0 0 180 180" width="180" height="180" role="img" aria-label="Kana Master">
  <defs>
    <linearGradient id="kbg" x1="20" y1="10" x2="162" y2="172" gradientUnits="userSpaceOnUse">
      <stop offset="0" stop-color="#6366f1"/>
      <stop offset="0.55" stop-color="#8b5cf6"/>
      <stop offset="1" stop-color="#d946ef"/>
    </linearGradient>
  </defs>

  <rect width="180" height="180" fill="url(#kbg)"/>
  <!-- Sheen -->
  <path d="M0 44C0 19.699 19.699 0 44 0h92c24.301 0 44 19.699 44 44v6C112 66 68 66 0 50v-6Z" fill="#ffffff" opacity="0.13"/>
  <circle cx="146" cy="150" r="56" fill="#4c1d95" opacity="0.18"/>

  <!-- Tabler "cards" glyph, scaled up for the large icon, optically centered -->
  <g transform="translate(34 32) scale(4.7)" fill="none" stroke="#ffffff" stroke-linecap="round" stroke-linejoin="round" stroke-width="2">
    <path d="m3.604 7.197l7.138-3.109a.96.96 0 0 1 1.27.527l4.924 11.902a1 1 0 0 1-.514 1.304L9.285 20.93a.96.96 0 0 1-1.271-.527L3.09 8.5a1 1 0 0 1 .514-1.304zM15 4h1a1 1 0 0 1 1 1v3.5M20 6q.396.168.768.315a1 1 0 0 1 .53 1.311L19 13"/>
  </g>

  <!-- Sparkle accent -->
  <path d="M150 104l2.6 6 6 2.6-6 2.6-2.6 6-2.6-6-6-2.6 6-2.6 2.6-6z" fill="#fde047" opacity="0.9"/>
</svg>
